<svg width="12" height="12" viewBox="0 0 12 12" fill="none" xmlns="http://www.w3.org/2000/svg">
<g id="alpha-c-circle-outline">
<path id="Vector" d="M5.5 3.5H6.5C6.76522 3.5 7.01957 3.60536 7.20711 3.79289C7.39464 3.98043 7.5 4.23478 7.5 4.5V5H6.5V4.5H5.5V7.5H6.5V7H7.5V7.5C7.5 7.76522 7.39464 8.01957 7.20711 8.20711C7.01957 8.39464 6.76522 8.5 6.5 8.5H5.5C5.23478 8.5 4.98043 8.39464 4.79289 8.20711C4.60536 8.01957 4.5 7.76522 4.5 7.5V4.5C4.5 4.23478 4.60536 3.98043 4.79289 3.79289C4.98043 3.60536 5.23478 3.5 5.5 3.5ZM6 1C6.65661 1 7.30679 1.12933 7.91342 1.3806C8.52005 1.63188 9.07124 2.00017 9.53553 2.46447C9.99983 2.92876 10.3681 3.47996 10.6194 4.08658C10.8707 4.69321 11 5.34339 11 6C11 7.32608 10.4732 8.59785 9.53553 9.53553C8.59785 10.4732 7.32608 11 6 11C5.34339 11 4.69321 10.8707 4.08658 10.6194C3.47996 10.3681 2.92876 9.99983 2.46447 9.53553C1.52678 8.59785 1 7.32608 1 6C1 4.67392 1.52678 3.40215 2.46447 2.46447C3.40215 1.52678 4.67392 1 6 1ZM6 2C4.93913 2 3.92172 2.42143 3.17157 3.17157C2.42143 3.92172 2 4.93913 2 6C2 7.06087 2.42143 8.07828 3.17157 8.82843C3.92172 9.57857 4.93913 10 6 10C7.06087 10 8.07828 9.57857 8.82843 8.82843C9.57857 8.07828 10 7.06087 10 6C10 4.93913 9.57857 3.92172 8.82843 3.17157C8.07828 2.42143 7.06087 2 6 2Z" fill="black"/>
</g>
</svg>
