<svg xmlns="http://www.w3.org/2000/svg" width="25" height="24" viewBox="0 0 25 24" fill="none">
<path d="M15.6885 13H17.1885V15.82L19.6285 17.23L18.8785 18.53L15.6885 16.69V13ZM19.6885 8H5.68848V19H10.3585C9.92848 18.09 9.68848 17.07 9.68848 16C9.68848 14.1435 10.426 12.363 11.7387 11.0503C13.0515 9.7375 14.832 9 16.6885 9C17.7585 9 18.7785 9.24 19.6885 9.67V8ZM5.68848 21C4.57848 21 3.68848 20.1 3.68848 19V5C3.68848 3.89 4.57848 3 5.68848 3H6.68848V1H8.68848V3H16.6885V1H18.6885V3H19.6885C20.2189 3 20.7276 3.21071 21.1027 3.58579C21.4778 3.96086 21.6885 4.46957 21.6885 5V11.1C22.9285 12.36 23.6885 14.09 23.6885 16C23.6885 17.8565 22.951 19.637 21.6382 20.9497C20.3255 22.2625 18.545 23 16.6885 23C14.7785 23 13.0485 22.24 11.7885 21H5.68848ZM16.6885 11.15C15.4022 11.15 14.1686 11.661 13.259 12.5705C12.3495 13.4801 11.8385 14.7137 11.8385 16C11.8385 18.68 14.0085 20.85 16.6885 20.85C17.3254 20.85 17.9561 20.7246 18.5445 20.4808C19.1329 20.2371 19.6676 19.8798 20.1179 19.4295C20.5683 18.9791 20.9256 18.4444 21.1693 17.856C21.413 17.2676 21.5385 16.6369 21.5385 16C21.5385 13.32 19.3685 11.15 16.6885 11.15Z" fill="#688f9e"/>
</svg>