<svg xmlns="http://www.w3.org/2000/svg" width="20" height="20" viewBox="0 0 20 20" fill="none">
<g id="domain">
<path id="Vector" d="M16.6666 15.8333H9.99998V14.1667V13.6538V13.2692V12.5V10.8333V10.1923V9.61538V9.16667V7.5H16.6666M8.33332 5.83333H6.66665V4.16667H8.33332M8.33332 9.16667H6.66665V7.5H8.33332M8.33332 12.5H6.66665V10.8333H8.33332M8.33332 15.8333H6.66665V14.1667H8.33332M4.99999 5.83333H3.33332V4.16667H4.99999M4.99999 9.16667H3.33332V7.5H4.99999M4.99999 12.5H3.33332V10.8333H4.99999M4.99999 15.8333H3.33332V14.1667H4.99999M9.99998 5.83333V2.5H1.66666V17.5H18.3333V5.83333H9.99998Z" fill="#688f9e"/>
<g id="Group 177">
<line id="Line 40" x1="10.7692" y1="10.5193" x2="15.7692" y2="10.5193" stroke="#688f9e" stroke-width="0.5" fill="#000000"/>
<line id="Line 41" x1="10.7692" y1="12.0579" x2="15.7692" y2="12.0579" stroke="#688f9e" stroke-width="0.5" fill="#000000"/>
<line id="Line 42" x1="10.7692" y1="13.5962" x2="13.8461" y2="13.5962" stroke="#688f9e" stroke-width="0.5" fill="#000000"/>
</g>
</g>
</svg>